<?xml version="1.0" standalone="no"?>
<!DOCTYPE svg PUBLIC "-//W3C//DTD SVG 20010904//EN"
 "http://www.w3.org/TR/2001/REC-SVG-20010904/DTD/svg10.dtd">
<svg version="1.0" xmlns="http://www.w3.org/2000/svg"
 width="200.000000pt" height="200.000000pt" viewBox="0 0 200.000000 200.000000"
 preserveAspectRatio="xMidYMid meet">

<g transform="translate(0.000000,200.000000) scale(0.100000,-0.100000)"
fill="#fff" stroke="none">
<path d="M591 1855 c-66 -21 -145 -80 -185 -138 -60 -88 -68 -122 -73 -324
l-6 -183 -44 0 c-56 0 -104 -20 -131 -55 -22 -28 -22 -31 -22 -492 l0 -465 34
-34 34 -34 416 0 416 0 6 27 c13 52 6 53 -416 53 -287 0 -389 3 -398 12 -9 9
-12 123 -12 450 0 422 1 438 19 448 13 6 182 10 481 10 l462 0 29 -24 c50 -43
100 -4 64 50 -34 52 -53 54 -465 54 l-380 0 0 173 c0 211 10 248 84 323 102
102 254 113 376 29 44 -31 98 -105 107 -148 11 -54 83 -57 83 -3 0 39 -58 142
-104 184 -76 70 -137 95 -241 99 -59 2 -105 -2 -134 -12z"/>
<path d="M1303 1025 c-166 -45 -285 -165 -328 -332 -49 -188 30 -385 197 -494
124 -80 300 -93 431 -31 94 44 178 126 224 220 32 64 37 85 41 164 6 111 -15
195 -67 276 -109 167 -311 247 -498 197z m270 -103 c75 -35 148 -106 185 -181
24 -50 27 -67 27 -156 0 -88 -3 -107 -27 -157 -34 -74 -112 -152 -186 -186
-50 -24 -69 -27 -157 -27 -89 0 -106 3 -157 28 -77 38 -144 107 -182 187 -27
58 -31 75 -31 155 0 76 4 99 27 147 48 103 143 185 247 215 72 20 180 10 254
-25z"/>
<path d="M1285 802 l-110 -67 -3 -150 -2 -151 120 -73 c76 -46 127 -71 137
-67 41 16 232 138 237 152 8 20 8 242 0 270 -6 23 -218 154 -250 154 -10 0
-68 -31 -129 -68z"/>
<path d="M657 905 c-50 -17 -76 -41 -98 -90 -23 -50 -23 -79 0 -131 18 -39 18
-43 0 -139 -15 -75 -17 -101 -8 -112 9 -11 43 -13 163 -11 l151 3 3 24 c2 13
-4 63 -13 110 -15 78 -15 89 -1 116 21 39 20 108 -1 152 -32 67 -124 104 -196
78z"/>
</g>
</svg>
